<svg width="3200" height="2400" viewBox="0 0 3200 2400" fill="none" xmlns="http://www.w3.org/2000/svg">
<g filter="url(#filter0_f_6_37)">
<path d="M2435.85 2049.61C2947.1 1743.45 3112.2 1078.88 2806.04 567.628C2499.88 56.3785 1836.08 -111.806 1324.83 194.357C813.577 500.52 648.476 1165.09 954.638 1676.34C1260.8 2187.59 1924.6 2355.78 2435.85 2049.61Z" fill="url(#paint0_radial_6_37)"/>
</g>
<g style="mix-blend-mode:color-dodge" filter="url(#filter1_f_6_37)">
<path d="M1387.77 2239.9C1891.28 2428.42 2452.27 2173.07 2640.79 1669.56L2680.99 1562.19C2869.5 1058.68 2614.15 497.684 2110.64 309.17L2007.28 270.474C1503.78 81.9593 942.78 337.312 754.265 840.82L714.066 948.189C525.552 1451.7 780.905 2012.69 1284.41 2201.21L1387.77 2239.9Z" fill="url(#paint1_radial_6_37)"/>
</g>
<g style="mix-blend-mode:color-dodge" filter="url(#filter2_f_6_37)">
<path d="M864.445 2024.79C1292.16 2184.92 1769.31 1966.4 1929.45 1538.68C2089.58 1110.97 1873.27 632.808 1445.56 472.671C1017.85 312.534 540.695 531.062 380.558 958.776C220.421 1386.49 436.731 1864.65 864.445 2024.79Z" fill="url(#paint2_radial_6_37)"/>
</g>
<defs>
<filter id="filter0_f_6_37" x="255.717" y="-503.74" width="3249.24" height="3251.45" filterUnits="userSpaceOnUse" color-interpolation-filters="sRGB">
<feFlood flood-opacity="0" result="BackgroundImageFix"/>
<feBlend mode="normal" in="SourceGraphic" in2="BackgroundImageFix" result="shape"/>
<feGaussianBlur stdDeviation="272.576" result="effect1_foregroundBlur_6_37"/>
</filter>
<filter id="filter1_f_6_37" x="165.256" y="-278.337" width="3064.54" height="3067.05" filterUnits="userSpaceOnUse" color-interpolation-filters="sRGB">
<feFlood flood-opacity="0" result="BackgroundImageFix"/>
<feBlend mode="normal" in="SourceGraphic" in2="BackgroundImageFix" result="shape"/>
<feGaussianBlur stdDeviation="243.372" result="effect1_foregroundBlur_6_37"/>
</filter>
<filter id="filter2_f_6_37" x="-158.987" y="-66.5913" width="2627.98" height="2630.64" filterUnits="userSpaceOnUse" color-interpolation-filters="sRGB">
<feFlood flood-opacity="0" result="BackgroundImageFix"/>
<feBlend mode="normal" in="SourceGraphic" in2="BackgroundImageFix" result="shape"/>
<feGaussianBlur stdDeviation="243.372" result="effect1_foregroundBlur_6_37"/>
</filter>
<radialGradient id="paint0_radial_6_37" cx="0" cy="0" r="1" gradientUnits="userSpaceOnUse" gradientTransform="translate(1759.76 1320.38) rotate(-145.788) scale(1127.45 1129.8)">
<stop stop-color="#00E29A"/>
<stop offset="1" stop-color="#00E29A" stop-opacity="0"/>
</radialGradient>
<radialGradient id="paint1_radial_6_37" cx="0" cy="0" r="1" gradientUnits="userSpaceOnUse" gradientTransform="translate(2243.83 1107.52) rotate(153.257) scale(956.423 958.416)">
<stop stop-color="#7C75FF"/>
<stop offset="1" stop-color="#484EB7" stop-opacity="0"/>
<stop offset="1" stop-color="#9FA7FF" stop-opacity="0"/>
</radialGradient>
<radialGradient id="paint2_radial_6_37" cx="0" cy="0" r="1" gradientUnits="userSpaceOnUse" gradientTransform="translate(931.262 1515.65) rotate(-134.681) scale(783.191 784.822)">
<stop stop-color="#FF8B8B"/>
<stop offset="1" stop-color="#FF8B8B" stop-opacity="0.7"/>
</radialGradient>
</defs>
</svg>
